<svg xmlns="http://www.w3.org/2000/svg" viewBox="0 0 24 24" preserveAspectRatio="xMidYMid meet" focusable="false" class="style-scope yt-icon" style="pointer-events: none; display: block; width: 100%; height: 100%;"><g class="style-scope yt-icon"><path d="M12,10c1.65,0,3,1.35,3,3s-1.35,3-3,3s-3-1.35-3-3S10.35,10,12,10 M12,9c-2.21,0-4,1.79-4,4s1.79,4,4,4s4-1.79,4-4 S14.21,9,12,9L12,9z M14.59,5l1.71,1.71L16.59,7H17h4v12H3V7h4h0.41l0.29-0.29L9.41,5H14.59 M15,4H9L7,6H2v14h20V6h-5L15,4L15,4z" class="style-scope yt-icon"/></g></svg>